<svg xmlns="http://www.w3.org/2000/svg" width="43" height="34" viewBox="0 0 43 34">
    <path fill="#00909E" d="M9.7 34c2.8 0 5.1-.883 6.9-2.65 1.8-1.767 2.7-4.083 2.7-6.95 0-2-.467-3.733-1.4-5.2-.933-1.467-2.233-2.567-3.9-3.3L18.4 0H8.5L2.7 14.4c-1.133 2.667-1.867 4.667-2.2 6-.333 1.333-.5 2.667-.5 4 0 2.8.917 5.1 2.75 6.9C4.583 33.1 6.9 34 9.7 34zm23.6 0c2.8 0 5.1-.883 6.9-2.65 1.8-1.767 2.7-4.083 2.7-6.95 0-2-.467-3.733-1.4-5.2-.933-1.467-2.233-2.567-3.9-3.3L42 0h-9.9l-5.8 14.4c-1.133 2.667-1.867 4.667-2.2 6-.333 1.333-.5 2.667-.5 4 0 2.8.917 5.1 2.75 6.9 1.833 1.8 4.15 2.7 6.95 2.7z"/>
</svg>
