<?xml version="1.0" encoding="utf-8"?>
<!-- Generator: Adobe Illustrator 16.0.4, SVG Export Plug-In . SVG Version: 6.00 Build 0)  -->
<!DOCTYPE svg PUBLIC "-//W3C//DTD SVG 1.1//EN" "http://www.w3.org/Graphics/SVG/1.1/DTD/svg11.dtd">
<svg version="1.1" xmlns="http://www.w3.org/2000/svg" xmlns:xlink="http://www.w3.org/1999/xlink" x="0px" y="0px" width="500px"
	 height="500px" viewBox="0 0 500 500" enable-background="new 0 0 500 500" xml:space="preserve">
<g id="github" display="none">
	<g display="inline">
		<path d="M197.4,364.3c0,15,18.5,27.1,46.7,27.1c28.3,0,46.7-12.1,46.7-27.1c0-14.4-18.5-27.1-46.7-27.1
			C215.9,337.2,197.4,349.9,197.4,364.3z"/>
		<path d="M249.3,0.7C111.4,0.7,0,112.1,0,250C0,388,111.4,499.4,249.3,499.4c137.9,0,249.3-111.4,249.3-249.3
			C498.6,112.1,387.3,0.7,249.3,0.7z M343,125h-30.2c4.6,11,6.9,23.3,6.9,36.6c0,50.2-35.2,83.8-80.2,84.9
			c-12.1,20.2-9.2,32.4,7.5,44.5c53.1,1.2,95.8,32.4,95.8,72.7c0,42.7-44.4,72.7-98.7,72.7c-54.2,0-98.7-30.6-98.7-72.7
			c0-27.1,18.5-49.6,45.6-61.8c-24.8-26-15.6-51.4,2.3-66.4c-24.3-13.8-40.4-40.4-40.4-73.9c0-51.4,37.5-85.4,83.7-85.4
			c16.7,0,32.4,4,45.7,12.7c45-3.5,60.7-16.7,60.7-16.7V125z"/>
		<path d="M236.6,117.9c-16.7,0-30.6,15-30.6,41.5c0,26.5,13.9,42.1,30.6,42.1c16.7,0,30-15.6,30-42.1
			C266.6,132.9,253.4,117.9,236.6,117.9z"/>
	</g>
</g>
<g id="twitter" display="none">
	<path display="inline" d="M250,1.1C112.3,1.1,1.1,112.3,1.1,250S112.3,498.9,250,498.9c137.7,0,248.9-111.2,248.9-248.9
		S387.7,1.1,250,1.1z M402,195.3c0,2.9,0,6.3,0,9.2c0,93.3-71.1,201.1-201.3,201.1c-39.8,0-77.3-10.9-108.4-31.1
		c5.2,0.6,10.9,1.2,16.7,1.2c33.4,0,63.4-13.2,87.5-32.3c-30.5-0.6-57.1-19.6-65.7-47.8c4,0.6,8.6,1.1,13.3,1.1
		c6.3,0,12.7-0.6,18.5-2.3c-32.3-6.9-56.5-35.2-56.5-69.7v-0.6c9,5.2,20.1,8.7,31.7,8.7c-19-12.7-31.1-34-31.1-58.8
		c0-12.7,3.5-24.8,9.2-35.7c35.2,43.2,87.6,71.4,146.3,74.3c-1.2-5.2-1.7-11-1.7-16.1c0-39.2,31.1-70.9,70.3-70.9
		c20.2,0,38.6,8.6,51.3,22.5c16.1-3.5,30.5-9.2,44.4-17.3c-5.2,16.7-15.6,30.6-30.5,39.2c14.4-1.7,28.5-5.8,41.1-10.9
		C427.1,172.8,415,185.5,402,195.3z"/>
</g>
<g id="linkedin" display="none">
	<path display="inline" d="M250,0.5C112,0.5,0.5,112,0.5,250C0.5,388,112,499.5,250,499.5c138,0,249.5-111.4,249.5-249.5
		C499.5,112,388,0.5,250,0.5z M177,375h-62V198h62V375z M146,167h-0.6c-24.8,0-41-16.2-41-36.5c0-20.8,16.7-36.4,41.6-36.4
		c25.4,0,41,15.7,41.6,36.4C187.6,150.8,171.5,167,146,167z M406,375h-62v-93.8c0-31.8-13-41.6-32.1-41.6
		c-19.1,0-30.9,16.2-30.9,41.6V375h-62V239.6c0,0-1.3-34.6-1.9-41.6h61.8l2.3,27.1c8.1-22.5,26.6-37.5,52-37.5
		c44.5,0,72.8,36.4,72.8,93.6V375z"/>
</g>
<g id="email">
	<g>
		<path d="M498.7,250c0,137.6-111.7,248.7-248.7,248.7C112.4,498.7,1.3,387.6,1.3,250C1.3,113,112.4,1.3,250,1.3
			C387,1.3,498.7,113,498.7,250z M405.4,155.6c0-10.9-8.6-19.6-19.6-19.6H114.2c-11,0-19.6,8.6-19.6,19.6L250,271.9L405.4,155.6z
			 M405.4,195.9L250,312.2L94.6,195.9v148.5c0,10.9,8.6,19.6,19.6,19.6h271.7c11,0,19.6-8.6,19.6-19.6V195.9z"/>
	</g>
</g>
<g id="codepen" display="none">
	<g display="inline">
		<polygon points="116.9,303.6 236,382.7 236,312.1 170.1,268.2 		"/>
		<polygon points="236,187.9 236,117.3 117.2,196.4 169.8,231.8 		"/>
		<polygon points="250,214.2 196.5,250 250,285.8 303.5,250 		"/>
		<polygon points="383.6,196.4 265,117.3 265,187.9 330.6,231.8 		"/>
		<polygon points="104,224.7 104,275.3 141.9,250 		"/>
		<path d="M250,1.8C113,1.8,1.9,112.9,1.9,250C1.9,387.1,113,498.2,250,498.2c137.1,0,248.2-111.1,248.2-248.2
			C498.2,112.9,387.1,1.8,250,1.8z M425.3,308.3c-0.1,0.4-0.2,0.7-0.4,1.1c-0.1,0.2-0.2,0.5-0.3,0.7c-0.2,0.3-0.3,0.7-0.5,1
			c-0.1,0.2-0.3,0.5-0.4,0.7c-0.2,0.3-0.4,0.6-0.6,0.9c-0.2,0.2-0.3,0.4-0.5,0.7c-0.2,0.3-0.5,0.6-0.8,0.8c-0.2,0.2-0.4,0.4-0.6,0.6
			c-0.3,0.2-0.6,0.5-0.9,0.7c-0.2,0.2-0.4,0.4-0.7,0.5c-0.1,0.1-0.2,0.1-0.3,0.2L258.4,423.5c-2.5,1.7-5.5,2.5-8.4,2.5
			c-2.9,0-5.9-0.9-8.4-2.5l-161-107.3c-0.1-0.1-0.2-0.1-0.2-0.2c-0.2-0.2-0.5-0.3-0.7-0.5c-0.3-0.2-0.6-0.5-0.9-0.7
			c-0.2-0.2-0.4-0.4-0.6-0.6c-0.3-0.3-0.5-0.5-0.8-0.8c-0.2-0.2-0.4-0.4-0.5-0.7c-0.2-0.3-0.4-0.6-0.6-0.9c-0.2-0.2-0.3-0.5-0.4-0.7
			c-0.2-0.3-0.3-0.7-0.5-1c-0.1-0.2-0.2-0.5-0.3-0.7c-0.1-0.4-0.2-0.7-0.4-1.1c-0.1-0.2-0.1-0.5-0.2-0.7c-0.1-0.4-0.1-0.8-0.1-1.3
			c0-0.2,0.2-0.4,0.1-0.6c-0.1-0.7,0.4-1.3,0.4-2V196.3c0-0.7-0.5-1.3-0.4-2c0-0.2-0.4-0.4-0.4-0.7c0.1-0.4,0.2-0.9,0.3-1.3
			c0.1-0.2,0.2-0.5,0.2-0.7c0.1-0.4,0.2-0.7,0.4-1.1c0.1-0.2,0.2-0.5,0.3-0.7c0.2-0.3,0.3-0.7,0.5-1c0.1-0.2,0.3-0.5,0.4-0.7
			c0.2-0.3,0.4-0.6,0.6-0.9c0.2-0.2,0.3-0.4,0.5-0.7c0.2-0.3,0.5-0.6,0.8-0.8c0.2-0.2,0.4-0.4,0.6-0.6c0.3-0.2,0.6-0.5,0.9-0.7
			c0.2-0.2,0.4-0.4,0.7-0.5c0.1-0.1,0.2-0.1,0.2-0.2l161-107.3c5.1-3.4,11.7-3.4,16.8,0l160.9,107.3c0.1,0.1,0.2,0.1,0.3,0.2
			c0.2,0.2,0.5,0.3,0.7,0.5c0.3,0.2,0.6,0.5,0.9,0.7c0.2,0.2,0.4,0.4,0.6,0.6c0.3,0.3,0.5,0.5,0.8,0.8c0.2,0.2,0.4,0.4,0.5,0.7
			c0.2,0.3,0.4,0.6,0.6,0.9c0.1,0.2,0.3,0.5,0.4,0.7c0.2,0.3,0.3,0.7,0.5,1c0.1,0.2,0.2,0.5,0.3,0.7c0.1,0.4,0.2,0.7,0.4,1.1
			c0.1,0.2,0.1,0.5,0.2,0.7c0.1,0.4,0,0.8,0.1,1.3c0,0.2-0.2,0.4-0.2,0.7c0.1,0.6-0.4,1.3-0.4,2v107.3c0,0.7,0.5,1.3,0.4,2
			c0,0.2,0.5,0.4,0.4,0.6c-0.1,0.4-0.2,0.9-0.3,1.3C425.5,307.8,425.4,308,425.3,308.3z"/>
		<polygon points="396,275.3 396,224.7 358.1,250 		"/>
		<polygon points="265,312.1 265,382.7 383.6,303.6 330.7,268.2 		"/>
	</g>
</g>
</svg>
