<?xml version="1.0" encoding="UTF-8"?>
<svg width="12px" height="12px" viewBox="0 0 12 12" version="1.1" xmlns="http://www.w3.org/2000/svg" xmlns:xlink="http://www.w3.org/1999/xlink">
    <!-- Generator: Sketch 50.2 (55047) - http://www.bohemiancoding.com/sketch -->
    <title></title>
    <desc>Created with Sketch.</desc>
    <defs></defs>
    <g id="Resources" stroke="none" stroke-width="1" fill="none" fill-rule="evenodd">
        <g id="Resources-(Filtered-Results)" transform="translate(-222.000000, -603.000000)" fill="#F55D23">
            <g id="Filters" transform="translate(202.000000, 456.000000)">
                <g id="chosen-filters" transform="translate(20.000000, 113.000000)">
                    <g id="2" transform="translate(0.000000, 34.000000)">
                        <path d="M8.9765625,7.765625 C8.9765625,7.63020766 8.92708383,7.51302133 8.828125,7.4140625 L7.4140625,6 L8.828125,4.5859375 C8.92708383,4.48697867 8.9765625,4.36979234 8.9765625,4.234375 C8.9765625,4.0937493 8.92708383,3.97395883 8.828125,3.875 L8.125,3.171875 C8.02604117,3.07291617 7.9062507,3.0234375 7.765625,3.0234375 C7.63020766,3.0234375 7.51302133,3.07291617 7.4140625,3.171875 L6,4.5859375 L4.5859375,3.171875 C4.48697867,3.07291617 4.36979234,3.0234375 4.234375,3.0234375 C4.0937493,3.0234375 3.97395883,3.07291617 3.875,3.171875 L3.171875,3.875 C3.07291617,3.97395883 3.0234375,4.0937493 3.0234375,4.234375 C3.0234375,4.36979234 3.07291617,4.48697867 3.171875,4.5859375 L4.5859375,6 L3.171875,7.4140625 C3.07291617,7.51302133 3.0234375,7.63020766 3.0234375,7.765625 C3.0234375,7.9062507 3.07291617,8.02604117 3.171875,8.125 L3.875,8.828125 C3.97395883,8.92708383 4.0937493,8.9765625 4.234375,8.9765625 C4.36979234,8.9765625 4.48697867,8.92708383 4.5859375,8.828125 L6,7.4140625 L7.4140625,8.828125 C7.51302133,8.92708383 7.63020766,8.9765625 7.765625,8.9765625 C7.9062507,8.9765625 8.02604117,8.92708383 8.125,8.828125 L8.828125,8.125 C8.92708383,8.02604117 8.9765625,7.9062507 8.9765625,7.765625 Z M12,6 C12,7.08854711 11.7317735,8.09244332 11.1953125,9.01171875 C10.6588515,9.93099418 9.93099418,10.6588515 9.01171875,11.1953125 C8.09244332,11.7317735 7.08854711,12 6,12 C4.91145289,12 3.90755668,11.7317735 2.98828125,11.1953125 C2.06900582,10.6588515 1.34114852,9.93099418 0.8046875,9.01171875 C0.268226484,8.09244332 0,7.08854711 0,6 C0,4.91145289 0.268226484,3.90755668 0.8046875,2.98828125 C1.34114852,2.06900582 2.06900582,1.34114852 2.98828125,0.8046875 C3.90755668,0.268226484 4.91145289,0 6,0 C7.08854711,0 8.09244332,0.268226484 9.01171875,0.8046875 C9.93099418,1.34114852 10.6588515,2.06900582 11.1953125,2.98828125 C11.7317735,3.90755668 12,4.91145289 12,6 Z" id=""></path>
                    </g>
                </g>
            </g>
        </g>
    </g>
</svg>
