<svg xmlns="http://www.w3.org/2000/svg" width="19" height="19" viewBox="0 0 19 19">
    <path fill="#878787" fill-rule="evenodd" d="M18.573 16.075l-4.544-4.544c.685-1.126 1.08-2.448 1.08-3.862C15.109 3.56 11.549 0 7.439 0 3.331 0 0 3.331 0 7.44s3.56 7.668 7.668 7.668c1.366 0 2.646-.37 3.746-1.012l4.569 4.569c.447.447 1.171.447 1.618 0l1.134-1.133c.447-.447.285-1.01-.162-1.457zM3 7.402C3 4.971 4.971 3 7.402 3 9.834 3 12 5.166 12 7.598 12 10.029 10.029 12 7.598 12 5.166 12 3 9.834 3 7.402z"/>
</svg>
